<svg width="216" height="63" viewBox="0 0 216 63" fill="none" xmlns="http://www.w3.org/2000/svg">
<mask id="mask0_679_11963" style="mask-type:luminance" maskUnits="userSpaceOnUse" x="0" y="0" width="216" height="63">
<path d="M216 0.00195312H0V62.442H216V0.00195312Z" fill="white"/>
</mask>
<g mask="url(#mask0_679_11963)">
<path d="M208.62 62.442H7.38C3.3 62.442 0 59.132 0 55.062V7.38195C0 3.31195 3.3 0.00195312 7.38 0.00195312H208.62C212.7 0.00195312 216 3.31195 216 7.38195V55.052C216 59.132 212.7 62.432 208.62 62.432" fill="black"/>
<path d="M71.64 17.4121L70.73 20.3921H68.75L72.12 9.87207H74.57L77.99 20.3921H75.93L74.98 17.4121H71.64ZM74.65 15.9621L73.82 13.3721C73.62 12.7321 73.45 12.0121 73.29 11.4021H73.26C73.11 12.0121 72.95 12.7421 72.76 13.3721L71.95 15.9621H74.65Z" fill="white"/>
<path d="M80.86 12.792L82.09 16.652C82.31 17.322 82.46 17.932 82.6 18.552H82.65C82.79 17.932 82.96 17.332 83.16 16.652L84.38 12.792H86.39L83.49 20.392H81.6L78.78 12.792H80.86Z" fill="white"/>
<path d="M94.07 18.5621C94.07 19.2521 94.1 19.9221 94.19 20.3921H92.46L92.32 19.5521H92.27C91.82 20.1421 91.02 20.5621 90.02 20.5621C88.49 20.5621 87.63 19.4521 87.63 18.3021C87.63 16.4021 89.33 15.4121 92.14 15.4321V15.3121C92.14 14.8121 91.94 13.9821 90.6 13.9821C89.85 13.9821 89.07 14.2121 88.56 14.5421L88.18 13.2921C88.74 12.9521 89.73 12.6221 90.93 12.6221C93.37 12.6221 94.07 14.1721 94.07 15.8421V18.5721V18.5621ZM92.19 16.6721C90.83 16.6521 89.54 16.9421 89.54 18.0921C89.54 18.8421 90.02 19.1821 90.63 19.1821C91.41 19.1821 91.96 18.6821 92.14 18.1321C92.19 17.9921 92.19 17.8521 92.19 17.7121V16.6621V16.6721Z" fill="white"/>
<path d="M97.73 11.6918C97.09 11.6918 96.67 11.2218 96.67 10.6618C96.67 10.0718 97.11 9.61182 97.75 9.61182C98.39 9.61182 98.81 10.0618 98.83 10.6618C98.83 11.2218 98.41 11.6918 97.75 11.6918H97.74H97.73ZM96.78 12.7918H98.7V20.3918H96.78V12.7918Z" fill="white"/>
<path d="M103.38 9.29199H101.46V20.392H103.38V9.29199Z" fill="white"/>
<path d="M112.06 18.5621C112.06 19.2521 112.09 19.9221 112.18 20.3921H110.45L110.31 19.5521H110.26C109.81 20.1421 109.01 20.5621 108.01 20.5621C106.48 20.5621 105.62 19.4521 105.62 18.3021C105.62 16.4021 107.32 15.4121 110.13 15.4321V15.3121C110.13 14.8121 109.93 13.9821 108.59 13.9821C107.84 13.9821 107.06 14.2121 106.55 14.5421L106.18 13.2921C106.74 12.9521 107.72 12.6221 108.93 12.6221C111.37 12.6221 112.07 14.1721 112.07 15.8421V18.5721L112.06 18.5621ZM110.19 16.6721C108.83 16.6521 107.54 16.9421 107.54 18.0921C107.54 18.8421 108.02 19.1821 108.63 19.1821C109.41 19.1821 109.96 18.6821 110.14 18.1321C110.19 17.9921 110.19 17.8521 110.19 17.7121V16.6621V16.6721Z" fill="white"/>
<path d="M114.77 9.29199H116.69V13.832H116.72C117.19 13.102 118.02 12.612 119.16 12.612C121.02 12.612 122.34 14.152 122.33 16.472C122.33 19.202 120.6 20.562 118.88 20.562C117.9 20.562 117.02 20.182 116.48 19.252H116.45L116.36 20.392H114.72C114.75 19.882 114.78 19.032 114.78 18.272V9.29199H114.77ZM116.69 17.252C116.69 17.412 116.71 17.562 116.74 17.702C116.94 18.482 117.61 19.042 118.44 19.042C119.64 19.042 120.38 18.092 120.38 16.542C120.38 15.202 119.74 14.112 118.46 14.112C117.68 14.112 116.96 14.672 116.76 15.512C116.73 15.652 116.7 15.822 116.7 16.012V17.242L116.69 17.252Z" fill="white"/>
<path d="M126.51 9.29199H124.59V20.392H126.51V9.29199Z" fill="white"/>
<path d="M130.65 17.1321C130.7 18.5021 131.77 19.1021 132.99 19.1021C133.88 19.1021 134.5 18.9621 135.1 18.7621L135.38 20.0721C134.72 20.3521 133.82 20.5521 132.73 20.5521C130.26 20.5521 128.81 19.0421 128.81 16.7121C128.81 14.6021 130.09 12.6221 132.53 12.6221C134.97 12.6221 135.81 14.6521 135.81 16.3221C135.81 16.6821 135.78 16.9621 135.75 17.1321H130.66H130.65ZM133.99 15.7821C134.01 15.0821 133.69 13.9221 132.41 13.9221C131.22 13.9221 130.72 15.0021 130.65 15.7821H133.99Z" fill="white"/>
<path d="M145.27 20.5618C143.13 20.5618 141.46 19.0918 141.46 16.6418C141.46 14.1918 143.1 12.6118 145.39 12.6118C147.68 12.6118 149.17 14.2018 149.17 16.5118C149.17 19.3018 147.2 20.5518 145.28 20.5518H145.27V20.5618ZM145.33 19.1718C146.42 19.1718 147.19 18.1118 147.19 16.5618C147.19 15.3718 146.66 14.0018 145.35 14.0018C144.04 14.0018 143.44 15.3318 143.44 16.5918C143.44 18.0618 144.18 19.1618 145.31 19.1618H145.33V19.1718Z" fill="white"/>
<path d="M151.43 15.0521C151.43 14.1821 151.4 13.4421 151.37 12.7921H153.04L153.13 13.9321H153.18C153.52 13.3421 154.35 12.6221 155.62 12.6221C156.89 12.6221 158.32 13.4821 158.32 15.8821V20.3921H156.4V16.1021C156.4 15.0121 155.99 14.1821 154.95 14.1821C154.19 14.1821 153.66 14.7321 153.45 15.3021C153.39 15.4621 153.36 15.6921 153.36 15.9121V20.3921H151.44V15.0521H151.43Z" fill="white"/>
<path d="M167.16 10.8418V12.7918H168.99V14.2318H167.16V17.5718C167.16 18.5118 167.41 18.9818 168.14 18.9818C168.48 18.9818 168.67 18.9618 168.89 18.9018L168.92 20.3518C168.64 20.4618 168.12 20.5518 167.53 20.5518C166.81 20.5518 166.24 20.3218 165.88 19.9318C165.46 19.4918 165.27 18.7918 165.27 17.7918V14.2318H164.19V12.7918H165.27V11.3718L167.16 10.8418Z" fill="white"/>
<path d="M171.13 9.29199H173.05V13.822H173.08C173.32 13.462 173.64 13.162 174.03 12.962C174.42 12.742 174.87 12.622 175.36 12.622C176.65 12.622 178.01 13.482 178.01 15.912V20.392H176.09V16.112C176.09 15.022 175.68 14.172 174.62 14.172C173.87 14.172 173.34 14.672 173.12 15.252C173.06 15.422 173.04 15.632 173.04 15.832V20.392H171.12V9.29199H171.13Z" fill="white"/>
<path d="M182.1 17.1321C182.15 18.5021 183.22 19.1021 184.44 19.1021C185.33 19.1021 185.95 18.9621 186.55 18.7621L186.83 20.0721C186.17 20.3521 185.27 20.5521 184.18 20.5521C181.71 20.5521 180.26 19.0421 180.26 16.7121C180.26 14.6021 181.54 12.6221 183.98 12.6221C186.42 12.6221 187.26 14.6521 187.26 16.3221C187.26 16.6821 187.23 16.9621 187.2 17.1321H182.11H182.1ZM185.44 15.7821C185.46 15.0821 185.14 13.9221 183.86 13.9221C182.67 13.9221 182.17 15.0021 182.1 15.7821H185.44Z" fill="white"/>
<path d="M47.76 30.5917C47.71 25.3817 52.02 22.8517 52.22 22.7317C49.78 19.1717 45.99 18.6817 44.66 18.6417C41.48 18.3117 38.4 20.5417 36.78 20.5417C35.16 20.5417 32.63 18.6717 29.95 18.7217C26.49 18.7817 23.26 20.7817 21.48 23.8817C17.82 30.2217 20.55 39.5317 24.06 44.6617C25.82 47.1717 27.87 49.9717 30.55 49.8717C33.17 49.7617 34.15 48.2017 37.32 48.2017C40.49 48.2017 41.38 49.8717 44.12 49.8117C46.94 49.7617 48.71 47.2917 50.4 44.7617C52.43 41.8817 53.24 39.0517 53.28 38.9117C53.21 38.8917 47.81 36.8317 47.76 30.5817" fill="white"/>
<path d="M42.59 15.2819C44 13.5119 44.97 11.1119 44.7 8.67188C42.66 8.76188 40.1 10.0819 38.63 11.8119C37.33 13.3319 36.16 15.8319 36.46 18.1719C38.76 18.3419 41.11 17.0119 42.59 15.2719" fill="white"/>
<path d="M85.7 49.482H82.04L80.04 43.182H73.08L71.17 49.482H67.61L74.51 28.042H78.77L85.7 49.482ZM79.44 40.542L77.63 34.942C77.44 34.372 77.08 33.022 76.55 30.902H76.49C76.28 31.812 75.94 33.162 75.47 34.942L73.69 40.542H79.45H79.44Z" fill="white"/>
<path d="M103.45 41.5619C103.45 44.1919 102.74 46.2719 101.32 47.7919C100.05 49.1519 98.47 49.8219 96.58 49.8219C94.54 49.8219 93.08 49.0919 92.19 47.6319H92.13V55.7719H88.69V39.1019C88.69 37.4519 88.65 35.7519 88.56 34.0119H91.58L91.77 36.4619H91.84C92.98 34.6119 94.72 33.6919 97.05 33.6919C98.87 33.6919 100.4 34.4119 101.61 35.8519C102.83 37.2919 103.44 39.1919 103.44 41.5419M99.95 41.6819C99.95 40.1819 99.61 38.9419 98.93 37.9619C98.19 36.9419 97.19 36.4319 95.94 36.4319C95.09 36.4319 94.32 36.7119 93.63 37.2719C92.94 37.8419 92.49 38.5719 92.28 39.4819C92.17 39.9119 92.12 40.2519 92.12 40.5319V43.1119C92.12 44.2319 92.46 45.1819 93.15 45.9519C93.84 46.7319 94.74 47.1119 95.84 47.1119C97.13 47.1119 98.14 46.6119 98.86 45.6219C99.58 44.6219 99.94 43.3119 99.94 41.6719" fill="white"/>
<path d="M121.23 41.5619C121.23 44.1919 120.52 46.2719 119.1 47.7919C117.83 49.1519 116.25 49.8219 114.36 49.8219C112.32 49.8219 110.86 49.0919 109.97 47.6319H109.91V55.7719H106.48V39.1019C106.48 37.4519 106.44 35.7519 106.35 34.0119H109.37L109.56 36.4619H109.63C110.77 34.6119 112.51 33.6919 114.84 33.6919C116.66 33.6919 118.18 34.4119 119.4 35.8519C120.62 37.2919 121.23 39.1919 121.23 41.5419M117.73 41.6819C117.73 40.1819 117.39 38.9419 116.71 37.9619C115.97 36.9419 114.97 36.4319 113.72 36.4319C112.87 36.4319 112.1 36.7119 111.41 37.2719C110.72 37.8419 110.27 38.5719 110.06 39.4819C109.95 39.9119 109.9 40.2519 109.9 40.5319V43.1119C109.9 44.2319 110.24 45.1819 110.93 45.9519C111.62 46.7319 112.51 47.1119 113.62 47.1119C114.91 47.1119 115.92 46.6119 116.64 45.6219C117.36 44.6219 117.72 43.3119 117.72 41.6719" fill="white"/>
<path d="M141.11 43.4622C141.11 45.2822 140.48 46.7722 139.2 47.9122C137.8 49.1622 135.86 49.7922 133.36 49.7922C131.06 49.7922 129.2 49.3422 127.8 48.4522L128.6 45.5922C130.11 46.5022 131.76 46.9622 133.57 46.9622C134.86 46.9622 135.87 46.6722 136.59 46.0922C137.31 45.5122 137.67 44.7222 137.67 43.7522C137.67 42.8822 137.37 42.1422 136.78 41.5522C136.19 40.9522 135.2 40.4022 133.82 39.8922C130.07 38.4922 128.19 36.4422 128.19 33.7422C128.19 31.9822 128.84 30.5322 130.16 29.4122C131.47 28.2822 133.22 27.7222 135.41 27.7222C137.36 27.7222 138.98 28.0622 140.28 28.7422L139.42 31.5422C138.21 30.8822 136.84 30.5622 135.32 30.5622C134.11 30.5622 133.17 30.8622 132.49 31.4522C131.92 31.9822 131.63 32.6322 131.63 33.3922C131.63 34.2422 131.96 34.9422 132.61 35.4922C133.18 36.0022 134.22 36.5522 135.73 37.1522C137.57 37.8922 138.93 38.7622 139.8 39.7622C140.67 40.7622 141.1 42.0022 141.1 43.4822" fill="white"/>
<path d="M152.46 36.5921H148.67V44.1021C148.67 46.0121 149.34 46.9621 150.68 46.9621C151.29 46.9621 151.8 46.9121 152.2 46.8021L152.29 49.4121C151.62 49.6721 150.72 49.7921 149.62 49.7921C148.26 49.7921 147.2 49.3821 146.44 48.5521C145.68 47.7221 145.29 46.3321 145.29 44.3821V36.5921H143.03V34.0121H145.29V31.1821L148.66 30.1621V34.0121H152.45V36.5921H152.46Z" fill="white"/>
<path d="M169.54 41.6221C169.54 44.0021 168.86 45.9521 167.5 47.4721C166.08 49.0421 164.19 49.8221 161.84 49.8221C159.49 49.8221 157.76 49.0721 156.42 47.5621C155.07 46.0621 154.4 44.1621 154.4 41.8721C154.4 39.4721 155.09 37.5121 156.48 35.9921C157.87 34.4621 159.74 33.7021 162.09 33.7021C164.44 33.7021 166.18 34.4521 167.56 35.9621C168.88 37.4321 169.53 39.3121 169.53 41.6221M165.98 41.7321C165.98 40.3121 165.67 39.0821 165.06 38.0621C164.34 36.8321 163.31 36.2121 161.98 36.2121C160.65 36.2121 159.55 36.8321 158.83 38.0621C158.21 39.0821 157.91 40.3221 157.91 41.7921C157.91 43.2621 158.21 44.4421 158.83 45.4621C159.57 46.6921 160.61 47.3121 161.95 47.3121C163.29 47.3121 164.29 46.6821 165.03 45.4321C165.67 44.3921 165.98 43.1621 165.98 41.7321Z" fill="white"/>
<path d="M180.71 37.0421C180.37 36.9821 180.01 36.9521 179.63 36.9521C178.42 36.9521 177.49 37.4121 176.83 38.3221C176.26 39.1321 175.97 40.1421 175.97 41.3721V49.4821H172.54L172.57 38.8921C172.57 37.1121 172.53 35.4921 172.44 34.0221H175.43L175.56 36.9821H175.65C176.01 35.9621 176.59 35.1421 177.37 34.5321C178.13 33.9821 178.96 33.7021 179.85 33.7021C180.17 33.7021 180.45 33.7221 180.71 33.7621V37.0421Z" fill="white"/>
<path d="M196.07 41.0119C196.07 41.6319 196.03 42.1419 195.95 42.5719H185.65C185.69 44.1019 186.19 45.2619 187.14 46.0719C188.01 46.7919 189.13 47.1519 190.51 47.1519C192.03 47.1519 193.42 46.9119 194.68 46.4219L195.22 48.8119C193.76 49.4519 192.03 49.7719 190.03 49.7719C187.64 49.7719 185.75 49.0619 184.39 47.6519C183.03 46.2419 182.34 44.3519 182.34 41.9719C182.34 39.5919 182.98 37.7019 184.25 36.1519C185.58 34.5019 187.39 33.6719 189.65 33.6719C191.91 33.6719 193.57 34.5019 194.71 36.1519C195.62 37.4719 196.07 39.0919 196.07 41.0219M192.79 40.1219C192.81 39.1119 192.59 38.2219 192.12 37.4819C191.52 36.5319 190.61 36.0519 189.38 36.0519C188.26 36.0519 187.35 36.5219 186.65 37.4519C186.08 38.1919 185.74 39.0819 185.64 40.1219H192.79Z" fill="white"/>
</g>
</svg>
