<svg width="253" height="25" viewBox="0 0 253 25" fill="none" xmlns="http://www.w3.org/2000/svg">
<g clip-path="url(#clip0_679_12033)">
<g clip-path="url(#clip1_679_12033)">
<path opacity="0.07" d="M35 0.441895H3C1.3 0.441895 0 1.74189 0 3.44189V21.4419C0 23.1419 1.4 24.4419 3 24.4419H35C36.7 24.4419 38 23.1419 38 21.4419V3.44189C38 1.74189 36.6 0.441895 35 0.441895Z" fill="black"/>
<path d="M35 1.44189C36.1 1.44189 37 2.34189 37 3.44189V21.4419C37 22.5419 36.1 23.4419 35 23.4419H3C1.9 23.4419 1 22.5419 1 21.4419V3.44189C1 2.34189 1.9 1.44189 3 1.44189H35Z" fill="#5A31F4"/>
<path d="M21.382 10.1549C21.382 11.8229 20.205 13.0129 18.561 13.0129H17.012C16.9864 13.0133 16.9615 13.0211 16.9402 13.0353C16.9189 13.0495 16.9022 13.0695 16.892 13.0929C16.8854 13.1085 16.882 13.1251 16.882 13.1419V15.3339C16.882 15.351 16.8786 15.3678 16.8721 15.3835C16.8655 15.3993 16.8559 15.4135 16.8438 15.4255C16.8318 15.4375 16.8174 15.447 16.8017 15.4534C16.7859 15.4598 16.769 15.4631 16.752 15.4629H15.668C15.6335 15.4629 15.6004 15.4493 15.5761 15.4249C15.5517 15.4005 15.538 15.3674 15.538 15.3329V7.42795C15.5376 7.40219 15.545 7.37692 15.5593 7.35549C15.5736 7.33406 15.5941 7.31748 15.618 7.30795C15.6338 7.30132 15.6508 7.29792 15.668 7.29795H18.568C20.205 7.29795 21.382 8.48795 21.382 10.1559V10.1549ZM20.03 10.1549C20.03 9.19695 19.372 8.49695 18.48 8.49695H17.012C16.9949 8.49695 16.978 8.50031 16.9622 8.50684C16.9465 8.51338 16.9321 8.52295 16.9201 8.53502C16.908 8.54709 16.8984 8.56143 16.8919 8.5772C16.8853 8.59297 16.882 8.60988 16.882 8.62695V11.6769C16.8818 11.694 16.8851 11.711 16.8916 11.7268C16.8981 11.7426 16.9078 11.757 16.92 11.7689C16.932 11.7811 16.9464 11.7907 16.9622 11.7972C16.978 11.8037 16.9949 11.807 17.012 11.8069H18.48C19.372 11.8119 20.03 11.1119 20.03 10.1549ZM21.704 13.9459C21.6926 13.6898 21.7458 13.4348 21.8589 13.2046C21.972 12.9745 22.1412 12.7765 22.351 12.6289C22.774 12.3129 23.435 12.1489 24.406 12.1149L25.439 12.0789V11.7759C25.439 11.1689 25.029 10.9129 24.371 10.9129C23.713 10.9129 23.296 11.1439 23.201 11.5229C23.1929 11.5496 23.1763 11.5728 23.1537 11.5891C23.1311 11.6053 23.1038 11.6137 23.076 11.6129H22.054C22.0259 11.6133 21.9984 11.6045 21.9756 11.5879C21.9529 11.5714 21.9362 11.5479 21.928 11.5209C21.9226 11.5031 21.9212 11.4843 21.924 11.4659C22.076 10.5679 22.828 9.88595 24.418 9.88595C26.11 9.88595 26.721 10.6689 26.721 12.1619V15.3339C26.7209 15.3511 26.7173 15.3681 26.7106 15.3839C26.7039 15.3996 26.6941 15.4139 26.6818 15.4259C26.6696 15.4379 26.6551 15.4474 26.6391 15.4537C26.6232 15.4601 26.6061 15.4632 26.589 15.4629H25.559C25.5245 15.4629 25.4914 15.4493 25.4671 15.4249C25.4427 15.4005 25.429 15.3674 25.429 15.3329V15.0969C25.4293 15.0774 25.4236 15.0582 25.4127 15.0419C25.4018 15.0256 25.3862 15.0131 25.368 15.0059C25.3499 14.9988 25.3302 14.9971 25.3112 15.001C25.2922 15.005 25.2748 15.0143 25.261 15.0279C24.951 15.3619 24.453 15.6029 23.654 15.6029C22.479 15.6029 21.704 14.9959 21.704 13.9459ZM25.439 13.2589V13.0129L24.1 13.0829C23.395 13.1189 22.985 13.4089 22.985 13.8989C22.985 14.3429 23.361 14.5889 24.019 14.5889C24.912 14.5889 25.439 14.1089 25.439 13.2589ZM27.755 17.8589V16.9399C27.7552 16.9207 27.7598 16.9017 27.7682 16.8844C27.7767 16.8671 27.7889 16.8519 27.804 16.8399C27.8189 16.8279 27.8363 16.8192 27.855 16.8145C27.8737 16.8098 27.8931 16.8093 27.912 16.8129C28.07 16.8419 28.23 16.8569 28.391 16.8569C28.6667 16.8721 28.9396 16.7938 29.1654 16.6349C29.3913 16.476 29.5571 16.2456 29.636 15.9809L29.703 15.7699C29.713 15.7415 29.713 15.7104 29.703 15.6819L27.558 10.2109C27.5455 10.1809 27.5448 10.1473 27.5559 10.1168C27.567 10.0862 27.5892 10.061 27.618 10.0459C27.6371 10.0359 27.6584 10.0307 27.68 10.0309H28.72C28.7467 10.031 28.7727 10.0392 28.7947 10.0544C28.8166 10.0695 28.8335 10.091 28.843 10.1159L30.299 13.9749C30.308 14.0009 30.3249 14.0233 30.3473 14.0391C30.3697 14.0549 30.3966 14.0632 30.424 14.0629C30.4513 14.0629 30.478 14.0544 30.5004 14.0387C30.5228 14.023 30.5397 14.0007 30.549 13.9749L31.814 10.1269C31.8226 10.1004 31.8394 10.0773 31.8621 10.0611C31.8848 10.0449 31.9121 10.0365 31.94 10.0369H33.016C33.0483 10.0371 33.0794 10.049 33.1036 10.0703C33.1279 10.0916 33.1436 10.121 33.148 10.1529C33.1504 10.1743 33.1477 10.1959 33.14 10.2159L30.845 16.2919C30.317 17.7049 29.412 18.0649 28.415 18.0649C28.2258 18.0702 28.0368 18.0479 27.854 17.9989C27.8233 17.9914 27.7964 17.9732 27.778 17.9475C27.7597 17.9218 27.7512 17.8904 27.754 17.8589H27.755ZM8.56998 6.84195C7.20548 6.83175 5.8884 7.34206 4.88698 8.26895C4.84437 8.3077 4.81777 8.36098 4.81241 8.41833C4.80704 8.47568 4.8233 8.53296 4.85798 8.57895L5.47598 9.41795C5.49601 9.44624 5.52202 9.46977 5.55216 9.48687C5.58231 9.50397 5.61585 9.51423 5.65041 9.5169C5.68497 9.51957 5.71969 9.5146 5.75211 9.50234C5.78452 9.49007 5.81384 9.47082 5.83798 9.44595C6.1979 9.08854 6.62535 8.80634 7.09542 8.61577C7.56549 8.4252 8.06879 8.33008 8.57598 8.33595C10.696 8.33595 11.803 9.91995 11.803 11.4859C11.803 13.1859 10.64 14.3839 8.96798 14.4069C7.67598 14.4069 6.70198 13.5569 6.70198 12.4329C6.70309 12.1487 6.76768 11.8683 6.89104 11.6123C7.0144 11.3562 7.19341 11.131 7.41498 10.9529C7.46216 10.9142 7.49211 10.8585 7.49829 10.7978C7.50447 10.737 7.48639 10.6764 7.44798 10.6289L6.79798 9.81395C6.77836 9.78889 6.75387 9.76806 6.72598 9.75271C6.6981 9.73737 6.6674 9.72782 6.63573 9.72464C6.60406 9.72146 6.57208 9.72473 6.54171 9.73423C6.51133 9.74374 6.48319 9.75929 6.45898 9.77995C6.06088 10.0993 5.73906 10.5034 5.51698 10.9629C5.2957 11.4214 5.18051 11.9239 5.17998 12.4329C5.17998 14.3679 6.83498 15.8849 8.95498 15.8969H8.98498C11.502 15.8649 13.322 14.0129 13.322 11.4819C13.322 9.23495 11.655 6.84195 8.56998 6.84195Z" fill="white"/>
</g>
<g clip-path="url(#clip2_679_12033)">
<path opacity="0.07" d="M78 0.441895H46C44.3 0.441895 43 1.74189 43 3.44189V21.4419C43 23.1419 44.4 24.4419 46 24.4419H78C79.7 24.4419 81 23.1419 81 21.4419V3.44189C81 1.74189 79.6 0.441895 78 0.441895Z" fill="black"/>
<path d="M78 1.44189C79.1 1.44189 80 2.34189 80 3.44189V21.4419C80 22.5419 79.1 23.4419 78 23.4419H46C44.9 23.4419 44 22.5419 44 21.4419V3.44189C44 2.34189 44.9 1.44189 46 1.44189H78Z" fill="white"/>
<path d="M71.3 10.5419H71C70.6 11.5419 70.3 12.0419 70 13.5419H71.9C71.6 12.0419 71.6 11.3419 71.3 10.5419ZM74.2 16.4419H72.5C72.4 16.4419 72.4 16.4419 72.3 16.3419L72.1 15.4419L72 15.2419H69.6C69.5 15.2419 69.4 15.2419 69.4 15.4419L69.1 16.3419C69.1 16.4419 69 16.4419 69 16.4419H66.9L67.1 15.9419L70 9.14189C70 8.64189 70.3 8.44189 70.8 8.44189H72.3C72.4 8.44189 72.5 8.44189 72.5 8.64189L73.9 15.1419C74 15.5419 74.1 15.8419 74.1 16.2419C74.2 16.3419 74.2 16.3419 74.2 16.4419ZM60.8 16.1419L61.2 14.3419C61.3 14.3419 61.4 14.4419 61.4 14.4419C62.1 14.7419 62.8 14.9419 63.5 14.8419C63.7 14.8419 64 14.7419 64.2 14.6419C64.7 14.4419 64.7 13.9419 64.3 13.5419C64.1 13.3419 63.8 13.2419 63.5 13.0419C63.1 12.8419 62.7 12.6419 62.4 12.3419C61.2 11.3419 61.6 9.94189 62.3 9.24189C62.9 8.84189 63.2 8.44189 64 8.44189C65.2 8.44189 66.5 8.44189 67.1 8.64189H67.2C67.1 9.24189 67 9.74189 66.8 10.3419C66.3 10.1419 65.8 9.94189 65.3 9.94189C65 9.94189 64.7 9.94189 64.4 10.0419C64.2 10.0419 64.1 10.1419 64 10.2419C63.8 10.4419 63.8 10.7419 64 10.9419L64.5 11.3419C64.9 11.5419 65.3 11.7419 65.6 11.9419C66.1 12.2419 66.6 12.7419 66.7 13.3419C66.9 14.2419 66.6 15.0419 65.8 15.6419C65.3 16.0419 65.1 16.2419 64.4 16.2419C63 16.2419 61.9 16.3419 61 16.0419C60.9 16.2419 60.9 16.2419 60.8 16.1419ZM57.3 16.4419C57.4 15.7419 57.4 15.7419 57.5 15.4419C58 13.2419 58.5 10.9419 58.9 8.74189C59 8.54189 59 8.44189 59.2 8.44189H61C60.8 9.64189 60.6 10.5419 60.3 11.6419C60 13.1419 59.7 14.6419 59.3 16.1419C59.3 16.3419 59.2 16.3419 59 16.3419L57.3 16.4419ZM48 8.64189C48 8.54189 48.2 8.44189 48.3 8.44189H51.7C52.2 8.44189 52.6 8.74189 52.7 9.24189L53.6 13.6419C53.6 13.7419 53.6 13.7419 53.7 13.8419C53.7 13.7419 53.8 13.7419 53.8 13.7419L55.9 8.64189C55.8 8.54189 55.9 8.44189 56 8.44189H58.1C58.1 8.54189 58.1 8.54189 58 8.64189L54.9 15.9419C54.8 16.1419 54.8 16.2419 54.7 16.3419C54.6 16.4419 54.4 16.3419 54.2 16.3419H52.7C52.6 16.3419 52.5 16.3419 52.5 16.1419L50.9 9.94189C50.7 9.74189 50.4 9.44189 50 9.34189C49.4 9.04189 48.3 8.84189 48.1 8.84189L48 8.64189Z" fill="#142688"/>
</g>
<g clip-path="url(#clip3_679_12033)">
<path opacity="0.07" d="M121 0.441895H89C87.3 0.441895 86 1.74189 86 3.44189V21.4419C86 23.1419 87.4 24.4419 89 24.4419H121C122.7 24.4419 124 23.1419 124 21.4419V3.44189C124 1.74189 122.6 0.441895 121 0.441895Z" fill="black"/>
<path d="M121 1.44189C122.1 1.44189 123 2.34189 123 3.44189V21.4419C123 22.5419 122.1 23.4419 121 23.4419H89C87.9 23.4419 87 22.5419 87 21.4419V3.44189C87 2.34189 87.9 1.44189 89 1.44189H121Z" fill="white"/>
<path d="M101 19.4419C104.866 19.4419 108 16.3079 108 12.4419C108 8.5759 104.866 5.44189 101 5.44189C97.134 5.44189 94 8.5759 94 12.4419C94 16.3079 97.134 19.4419 101 19.4419Z" fill="#EB001B"/>
<path d="M109 19.4419C112.866 19.4419 116 16.3079 116 12.4419C116 8.5759 112.866 5.44189 109 5.44189C105.134 5.44189 102 8.5759 102 12.4419C102 16.3079 105.134 19.4419 109 19.4419Z" fill="#F79E1B"/>
<path d="M108 12.4417C108 10.0417 106.8 7.9417 105 6.7417C103.2 8.0417 102 10.1417 102 12.4417C102 14.7417 103.2 16.9417 105 18.1417C106.8 16.9417 108 14.8417 108 12.4417Z" fill="#FF5F00"/>
</g>
<g clip-path="url(#clip4_679_12033)">
<path d="M163.387 0.441895H132.613C132.485 0.441895 132.356 0.441895 132.228 0.442574C132.12 0.44348 132.012 0.444612 131.904 0.447557C131.669 0.453898 131.432 0.467941 131.199 0.509615C130.966 0.549543 130.741 0.623969 130.529 0.730443C130.105 0.946305 129.76 1.29127 129.544 1.71567C129.437 1.92687 129.363 2.15284 129.323 2.38608C129.281 2.61869 129.267 2.85582 129.261 3.09092C129.258 3.19886 129.257 3.30683 129.256 3.4148C129.256 3.54254 129.256 3.67073 129.256 3.79915V21.0844C129.256 21.2128 129.256 21.3408 129.256 21.4692C129.257 21.577 129.258 21.6851 129.261 21.7931C129.267 22.0277 129.281 22.2651 129.323 22.4975C129.363 22.7307 129.437 22.9567 129.544 23.1679C129.651 23.3788 129.791 23.5715 129.958 23.7386C130.126 23.9061 130.318 24.046 130.529 24.1531C130.744 24.2625 130.963 24.332 131.2 24.3744C131.432 24.4158 131.669 24.4299 131.904 24.4362C132.012 24.4387 132.12 24.4401 132.228 24.4408C132.356 24.4417 132.485 24.4417 132.613 24.4417H163.387C163.515 24.4417 163.644 24.4417 163.772 24.4408C163.879 24.4403 163.987 24.4387 164.096 24.4362C164.331 24.4299 164.568 24.4158 164.801 24.3744C165.034 24.3344 165.26 24.2598 165.471 24.1531C165.895 23.937 166.24 23.5921 166.456 23.1679C166.565 22.9534 166.635 22.7337 166.676 22.4975C166.719 22.2651 166.732 22.0277 166.739 21.7931C166.742 21.6851 166.743 21.577 166.744 21.4692C166.744 21.3408 166.744 21.2128 166.744 21.0844V3.79938C166.744 3.67096 166.744 3.54277 166.744 3.41457C166.743 3.30667 166.741 3.19878 166.739 3.09092C166.732 2.85582 166.719 2.61869 166.676 2.38608C166.637 2.1528 166.563 1.9268 166.456 1.71567C166.24 1.29134 165.895 0.946408 165.471 0.730443C165.26 0.624079 165.034 0.54973 164.801 0.509841C164.568 0.467941 164.331 0.454125 164.096 0.447783C163.988 0.44504 163.88 0.443379 163.772 0.4428C163.644 0.441895 163.515 0.441895 163.387 0.441895Z" fill="black"/>
<path d="M163.387 1.2417L163.766 1.24238C163.868 1.24306 163.971 1.24419 164.074 1.24691C164.253 1.25189 164.463 1.26163 164.659 1.29674C164.829 1.32731 164.971 1.37374 165.108 1.4435C165.382 1.58269 165.604 1.80534 165.743 2.07926C165.813 2.21515 165.859 2.35694 165.889 2.52839C165.924 2.72181 165.934 2.93222 165.939 3.11273C165.942 3.21465 165.943 3.31657 165.943 3.42076C165.944 3.54691 165.944 3.67284 165.944 3.79922V21.0845C165.944 21.2109 165.944 21.3368 165.944 21.4654C165.943 21.5674 165.942 21.6693 165.939 21.7712C165.934 21.9515 165.924 22.1619 165.889 22.3576C165.863 22.5132 165.814 22.6641 165.743 22.8049C165.604 23.0789 165.381 23.3016 165.107 23.4407C164.971 23.51 164.829 23.5564 164.66 23.5867C164.461 23.6223 164.242 23.632 164.077 23.6366C163.974 23.6388 163.871 23.6404 163.765 23.6409C163.639 23.6418 163.513 23.6418 163.387 23.6418H132.608C132.483 23.6418 132.359 23.6418 132.232 23.6409C132.13 23.6404 132.028 23.6391 131.926 23.6368C131.758 23.6323 131.539 23.6223 131.341 23.587C131.184 23.5609 131.033 23.5112 130.891 23.4397C130.755 23.3707 130.631 23.2805 130.524 23.1725C130.416 23.0649 130.326 22.9408 130.257 22.8049C130.186 22.6633 130.136 22.5117 130.111 22.3553C130.075 22.1599 130.065 21.9503 130.061 21.7714C130.058 21.6691 130.057 21.5668 130.056 21.4645L130.056 21.164V3.71995L130.056 3.41985C130.056 3.31739 130.058 3.21494 130.061 3.11251C130.066 2.93313 130.075 2.72362 130.111 2.52658C130.137 2.37049 130.186 2.21922 130.257 2.0779C130.326 1.94246 130.416 1.8188 130.524 1.71031C130.632 1.60239 130.756 1.51219 130.892 1.44305C131.033 1.37206 131.185 1.32274 131.341 1.29674C131.537 1.26163 131.747 1.25189 131.926 1.24691C132.029 1.24419 132.131 1.24306 132.233 1.24238L132.613 1.2417H163.387Z" fill="white"/>
<path d="M139.11 8.54361C139.428 8.14612 139.643 7.61228 139.587 7.06689C139.121 7.09 138.554 7.37379 138.225 7.77173C137.93 8.11237 137.669 8.6684 137.737 9.19092C138.259 9.23621 138.781 8.93 139.11 8.54361Z" fill="black"/>
<path d="M139.581 9.29308C138.822 9.24778 138.177 9.72341 137.815 9.72341C137.453 9.72341 136.898 9.31573 136.298 9.32683C135.517 9.33815 134.793 9.77981 134.397 10.4819C133.582 11.8862 134.182 13.9699 134.974 15.1136C135.359 15.6799 135.823 16.3027 136.434 16.2803C137.012 16.2576 137.238 15.9066 137.939 15.9066C138.641 15.9066 138.845 16.2803 139.456 16.269C140.09 16.2576 140.486 15.7027 140.871 15.1365C141.313 14.491 141.493 13.8682 141.504 13.8342C141.493 13.8229 140.282 13.3583 140.271 11.9654C140.26 10.799 141.222 10.2441 141.267 10.2099C140.724 9.40633 139.875 9.31573 139.58 9.29308" fill="black"/>
<path d="M147.142 7.71484C148.791 7.71484 149.939 8.85114 149.939 10.5054C149.939 12.1656 148.767 13.3078 147.101 13.3078H145.276V16.2105H143.957V7.71484H147.142ZM145.276 12.2009H146.789C147.937 12.2009 148.59 11.5828 148.59 10.5113C148.59 9.44002 147.937 8.82759 146.795 8.82759H145.276V12.2009Z" fill="black"/>
<path d="M150.266 14.4499C150.266 13.3607 151.096 12.7368 152.626 12.6425L154.269 12.5424V12.0713C154.269 11.3828 153.816 11.0059 153.009 11.0059C152.344 11.0059 151.861 11.3472 151.761 11.8711H150.572C150.607 10.7704 151.643 9.96973 153.045 9.96973C154.552 9.96973 155.535 10.7586 155.535 11.9832V16.2102H154.316V15.1917H154.287C153.939 15.8569 153.174 16.2748 152.344 16.2748C151.119 16.2748 150.266 15.545 150.266 14.4499ZM154.269 13.9025V13.4255L152.803 13.5197C151.979 13.5727 151.549 13.8787 151.549 14.4144C151.549 14.9326 151.997 15.2682 152.697 15.2682C153.592 15.2682 154.269 14.697 154.269 13.9025Z" fill="black"/>
<path d="M156.655 18.4827V17.4644C156.738 17.4759 156.938 17.4877 157.044 17.4877C157.626 17.4877 157.956 17.2408 158.156 16.6046L158.274 16.228L156.043 10.0464H157.42L158.975 15.0622H159.004L160.558 10.0464H161.901L159.587 16.5399C159.057 18.0295 158.451 18.5182 157.167 18.5182C157.067 18.5182 156.743 18.5065 156.655 18.4827Z" fill="black"/>
</g>
<g clip-path="url(#clip5_679_12033)">
<path opacity="0.07" d="M207 0.441895H175C173.3 0.441895 172 1.74189 172 3.44189V21.4419C172 23.1419 173.4 24.4419 175 24.4419H207C208.7 24.4419 210 23.1419 210 21.4419V3.44189C210 1.74189 208.6 0.441895 207 0.441895Z" fill="black"/>
<path d="M207 1.44189C208.1 1.44189 209 2.34189 209 3.44189V21.4419C209 22.5419 208.1 23.4419 207 23.4419H175C173.9 23.4419 173 22.5419 173 21.4419V3.44189C173 2.34189 173.9 1.44189 175 1.44189H207Z" fill="white"/>
<path d="M190.093 12.4181V15.6181H189.075V7.71812H191.766C192.088 7.71267 192.409 7.77099 192.709 7.88975C193.008 8.00851 193.282 8.18535 193.513 8.41012C193.732 8.61452 193.909 8.86008 194.033 9.13276C194.157 9.40545 194.226 9.69991 194.236 9.99933C194.246 10.2987 194.197 10.5972 194.092 10.8777C193.987 11.1583 193.828 11.4153 193.623 11.6341L193.513 11.7501C193.043 12.1971 192.415 12.4401 191.766 12.4241L190.093 12.4181ZM190.093 8.68612V11.4741H191.791C192.168 11.4861 192.532 11.3391 192.796 11.0701C192.985 10.8733 193.112 10.6253 193.161 10.357C193.21 10.0886 193.179 9.81181 193.071 9.56095C192.964 9.31009 192.786 9.09626 192.558 8.94605C192.331 8.79583 192.064 8.71588 191.791 8.71612L190.093 8.68612ZM196.577 10.0341C197.227 10.0041 197.863 10.2221 198.355 10.6471C198.8 11.0771 199.037 11.6771 199.005 12.2961V15.6301H198.036V14.8641H197.987C197.813 15.1514 197.567 15.3884 197.274 15.5517C196.981 15.715 196.65 15.7989 196.314 15.7951C195.766 15.8129 195.231 15.6224 194.818 15.2621C194.622 15.1024 194.465 14.9001 194.359 14.6708C194.253 14.4414 194.2 14.1908 194.205 13.9381C194.193 13.6827 194.243 13.4282 194.35 13.1959C194.456 12.9635 194.617 12.7599 194.818 12.6021C195.311 12.2473 195.909 12.0662 196.516 12.0871C197.033 12.0671 197.546 12.1801 198.006 12.4181V12.2101C198.009 12.0382 197.974 11.8677 197.901 11.7116C197.829 11.5555 197.722 11.4178 197.589 11.3091C197.321 11.0658 196.971 10.9341 196.609 10.9411C196.346 10.9386 196.087 11.0032 195.857 11.1286C195.626 11.2541 195.431 11.4363 195.29 11.6581L194.395 11.0941C194.638 10.7459 194.966 10.4657 195.348 10.2802C195.73 10.0946 196.153 10.0099 196.577 10.0341ZM195.29 13.9621C195.288 14.0916 195.317 14.2198 195.376 14.3352C195.435 14.4506 195.521 14.5499 195.627 14.6241C195.85 14.8001 196.127 14.8931 196.412 14.8871C196.841 14.8861 197.252 14.7171 197.558 14.4151C197.863 14.1291 198.036 13.7301 198.036 13.3121C197.651 13.0384 197.183 12.9063 196.712 12.9381C196.346 12.9237 195.985 13.0267 195.682 13.2321C195.562 13.3125 195.463 13.421 195.395 13.5483C195.327 13.6756 195.291 13.8177 195.29 13.9621ZM204.576 10.2121L201.186 18.0021H200.138L201.419 15.2741L199.195 10.2121H200.298L201.91 14.0971L203.479 10.2121H204.576Z" fill="#5F6368"/>
<path d="M185.986 11.7257C185.986 11.4177 185.962 11.1097 185.913 10.8057H181.623V12.5527H184.074C184.024 12.8303 183.919 13.095 183.764 13.3309C183.609 13.5669 183.409 13.7691 183.174 13.9257V15.0597H184.638C185.083 14.629 185.433 14.1097 185.665 13.5355C185.897 12.9613 186.007 12.3447 185.986 11.7257Z" fill="#4285F4"/>
<path d="M181.629 16.1628C182.735 16.1932 183.812 15.8009 184.639 15.0658L183.173 13.9258C182.821 14.1517 182.422 14.2942 182.006 14.3426C181.59 14.3911 181.169 14.3441 180.775 14.2052C180.38 14.0664 180.022 13.8394 179.728 13.5414C179.434 13.2435 179.212 12.8825 179.079 12.4858H177.577V13.6558C177.953 14.4089 178.531 15.0423 179.247 15.4851C179.962 15.9279 180.787 16.1626 181.629 16.1628Z" fill="#34A853"/>
<path d="M179.079 12.4919C178.889 11.9292 178.889 11.3196 179.079 10.7569V9.58691H177.577C177.257 10.2184 177.09 10.9164 177.09 11.6244C177.09 12.3324 177.257 13.0305 177.577 13.6619L179.079 12.4919Z" fill="#FBBC04"/>
<path d="M181.629 8.88208C182.276 8.87026 182.901 9.11469 183.369 9.56208L184.669 8.26908C183.84 7.49109 182.741 7.06674 181.604 7.08608C180.767 7.09028 179.948 7.32609 179.237 7.76736C178.527 8.20864 177.952 8.83814 177.577 9.58608L179.079 10.7571C179.255 10.2172 179.595 9.74589 180.053 9.40955C180.51 9.07322 181.061 8.88874 181.629 8.88208Z" fill="#EA4335"/>
</g>
<g clip-path="url(#clip6_679_12033)">
<path opacity="0.07" d="M250 0.441895H218C216.3 0.441895 215 1.74189 215 3.44189V21.4419C215 23.1419 216.4 24.4419 218 24.4419H250C251.7 24.4419 253 23.1419 253 21.4419V3.44189C253 1.74189 251.6 0.441895 250 0.441895Z" fill="black"/>
<path d="M250 1.44189C251.1 1.44189 252 2.34189 252 3.44189V21.4419C252 22.5419 251.1 23.4419 250 23.4419H218C216.9 23.4419 216 22.5419 216 21.4419V3.44189C216 2.34189 216.9 1.44189 218 1.44189H250Z" fill="#006FCF"/>
<path d="M223.971 10.7099L224.745 12.5859H223.203L223.971 10.7099ZM240.046 10.7879H237.069V11.6149H239.998V12.8539H237.075V13.7759H240.052V14.5149L242.129 12.2699L240.052 9.92989L240.046 10.7879ZM225.983 8.44789H229.978L230.865 10.3829L231.687 8.44189H242.057L243.135 9.63189L244.25 8.44189H249.013L245.494 12.2939L248.977 16.1219H244.143L243.065 14.9319L241.94 16.1219H225.03L224.536 14.9319H223.406L222.911 16.1219H219L222.286 8.44189H225.716L225.983 8.44789ZM234.646 9.52589H232.407L230.907 13.0619L229.282 9.52589H227.06V14.3359L225 9.52589H223.007L220.625 15.0379H222.18L222.674 13.8479H225.27L225.764 15.0379H228.484V11.1029L230.235 15.0439H231.425L233.165 11.1149V15.0449H234.623L234.647 9.52489L234.646 9.52589ZM243.986 12.2939L246.517 9.52589H244.695L243.094 11.2519L241.546 9.52589H235.652V15.0439H241.462L243.076 13.3059L244.624 15.0439H246.499L243.987 12.2939H243.986Z" fill="white"/>
</g>
</g>
<defs>
<clipPath id="clip0_679_12033">
<rect width="253" height="24" fill="white" transform="translate(0 0.441895)"/>
</clipPath>
<clipPath id="clip1_679_12033">
<rect width="38" height="24" fill="white" transform="translate(0 0.441895)"/>
</clipPath>
<clipPath id="clip2_679_12033">
<rect width="38" height="24" fill="white" transform="translate(43 0.441895)"/>
</clipPath>
<clipPath id="clip3_679_12033">
<rect width="38" height="24" fill="white" transform="translate(86 0.441895)"/>
</clipPath>
<clipPath id="clip4_679_12033">
<rect width="38" height="24" fill="white" transform="translate(129 0.441895)"/>
</clipPath>
<clipPath id="clip5_679_12033">
<rect width="38" height="24" fill="white" transform="translate(172 0.441895)"/>
</clipPath>
<clipPath id="clip6_679_12033">
<rect width="38" height="24" fill="white" transform="translate(215 0.441895)"/>
</clipPath>
</defs>
</svg>
