<?xml version="1.0" encoding="UTF-8"?>
<svg id="Layer_1" xmlns="http://www.w3.org/2000/svg" version="1.1" viewBox="0 0 135.7 46.4">
  <!-- Generator: Adobe Illustrator 29.0.1, SVG Export Plug-In . SVG Version: 2.1.0 Build 192)  -->
  <defs>
    <style>
      .st0 {
        fill: #fff;
        stroke: #231f20;
        stroke-miterlimit: 10;
      }

      .st1 {
        fill: #060a12;
      }
    </style>
  </defs>
  <path class="st0" d="M420.5-184.4l1.2-1.8"/>
  <g>
    <path class="st1" d="M9.7,12.8c1.8-2.4,4.3-3.5,7.6-3.5s6.2,1.3,8.3,3.9,3.2,6,3.2,10.2-1,7.5-3,10-4.7,3.7-8.1,3.7-5.5-1.2-7.6-3.5v12.8H0V10h9.7v2.9ZM9.8,23.1c0,4.1,1.5,6.1,4.5,6.1s4.4-2.1,4.4-6.2-1.5-6.2-4.5-6.2-4.4,2.1-4.4,6.2Z"/>
    <path class="st1" d="M40.9,13.3c2-2.6,4.7-3.9,8.1-3.9,6.3,0,9.5,3.3,9.5,9.9v17h-10v-15c0-1.4-.3-2.5-.8-3.2s-1.4-1.1-2.8-1.1c-2.7,0-4,1.8-4,5.4v13.9h-9.9V0h9.9v13.3Z"/>
    <path class="st1" d="M71.9,7h-9.8V0h9.8v7ZM71.9,36.3h-9.8V10h9.8v26.3Z"/>
    <path class="st1" d="M103.6,36.2h-9.8v-2.8c-1.8,2.3-4.3,3.5-7.5,3.5s-6.5-1.3-8.6-3.8-3.2-5.9-3.2-10.2,1-7.4,3.1-9.9,4.8-3.7,8.2-3.7,5.6,1.2,7.6,3.5V0h10.2v36.2ZM84.8,23c0,4.1,1.5,6.2,4.5,6.2s2.6-.5,3.3-1.6c.8-1.1,1.2-2.6,1.2-4.6s-.4-3.6-1.2-4.7c-.8-1.1-1.9-1.6-3.3-1.6-3,0-4.5,2.1-4.5,6.4Z"/>
    <path class="st1" d="M131.6,13.1c2.7,2.5,4.1,5.8,4.1,9.8s-1.4,7.4-4.2,9.9c-2.8,2.5-6.4,3.8-10.8,3.8s-8-1.3-10.8-3.8-4.2-5.8-4.2-9.8,1.4-7.3,4.2-9.8c2.8-2.5,6.4-3.8,10.9-3.8s8,1.2,10.7,3.7ZM115.8,23c0,4.8,1.7,7.1,5,7.1s4.9-2.4,4.9-7.3-1.7-7-5-7-4.8,2.4-4.8,7.1Z"/>
    <rect class="st1" x="12.1" y="38.6" width="123.6" height="7.8"/>
  </g>
</svg>