<svg width="216" height="63" viewBox="0 0 216 63" fill="none" xmlns="http://www.w3.org/2000/svg">
<path d="M208.62 62.442H7.38C3.3 62.442 0 59.132 0 55.062V7.38195C0 3.30195 3.3 0.00195312 7.38 0.00195312H208.62C212.7 0.00195312 216 3.31195 216 7.38195V55.052C216 59.132 212.7 62.432 208.62 62.432" fill="black"/>
<path d="M108.97 34.2221C105.19 34.2221 102.1 37.1021 102.1 41.0621C102.1 45.0221 105.18 47.9021 108.97 47.9021C112.76 47.9021 115.84 45.0021 115.84 41.0621C115.84 37.1221 112.76 34.2221 108.97 34.2221ZM108.97 45.2121C106.9 45.2121 105.11 43.5021 105.11 41.0621C105.11 38.6221 106.9 36.9121 108.97 36.9121C111.04 36.9121 112.83 38.5921 112.83 41.0621C112.83 43.5321 111.04 45.2121 108.97 45.2121ZM93.99 34.2221C90.21 34.2221 87.12 37.1021 87.12 41.0621C87.12 45.0221 90.2 47.9021 93.99 47.9021C97.78 47.9021 100.86 45.0021 100.86 41.0621C100.86 37.1221 97.78 34.2221 93.99 34.2221ZM93.99 45.2121C91.92 45.2121 90.13 43.5021 90.13 41.0621C90.13 38.6221 91.92 36.9121 93.99 36.9121C96.06 36.9121 97.85 38.5921 97.85 41.0621C97.85 43.5321 96.06 45.2121 93.99 45.2121ZM76.17 36.3221V39.2221H83.11C82.9 40.8521 82.36 42.0421 81.53 42.8721C80.52 43.8821 78.94 44.9921 76.17 44.9921C71.89 44.9921 68.55 41.5421 68.55 37.2721C68.55 33.0021 71.89 29.5521 76.17 29.5521C78.48 29.5521 80.16 30.4621 81.4 31.6221L83.45 29.5721C81.71 27.9121 79.41 26.6421 76.17 26.6421C70.31 26.6421 65.39 31.4121 65.39 37.2621C65.39 43.1121 70.31 47.8821 76.17 47.8821C79.33 47.8821 81.71 46.8421 83.58 44.9021C85.5 42.9821 86.09 40.2921 86.09 38.1121C86.09 37.4421 86.04 36.8121 85.94 36.3021H76.17V36.3221ZM149.05 38.5721C148.48 37.0421 146.74 34.2221 143.19 34.2221C139.64 34.2221 136.74 36.9921 136.74 41.0621C136.74 44.8921 139.64 47.9021 143.53 47.9021C146.66 47.9021 148.48 45.9821 149.23 44.8721L146.9 43.3221C146.12 44.4621 145.06 45.2121 143.53 45.2121C142 45.2121 140.91 44.5121 140.21 43.1421L149.36 39.3621L149.05 38.5821V38.5721ZM139.72 40.8521C139.64 38.2121 141.77 36.8621 143.29 36.8621C144.48 36.8621 145.49 37.4621 145.83 38.3121L139.71 40.8521H139.72ZM132.28 47.4921H135.29V27.3821H132.28V47.4921ZM127.36 35.7521H127.26C126.59 34.9521 125.29 34.2221 123.66 34.2221C120.24 34.2221 117.1 37.2221 117.1 41.0921C117.1 44.9621 120.23 47.9121 123.66 47.9121C125.29 47.9121 126.59 47.1821 127.26 46.3521H127.36V47.3421C127.36 49.9621 125.96 51.3621 123.71 51.3621C121.87 51.3621 120.73 50.0421 120.26 48.9221L117.64 50.0121C118.39 51.8221 120.39 54.0521 123.7 54.0521C127.22 54.0521 130.2 51.9821 130.2 46.9221V34.6421H127.35V35.7521H127.36ZM123.91 45.2121C121.84 45.2121 120.1 43.4721 120.1 41.0921C120.1 38.7121 121.84 36.9221 123.91 36.9221C125.98 36.9221 127.56 38.6821 127.56 41.0921C127.56 43.5021 125.95 45.2121 123.91 45.2121ZM163.13 27.3821H155.94V47.4921H158.94V39.8721H163.13C166.46 39.8721 169.73 37.4621 169.73 33.6321C169.73 29.8021 166.46 27.3921 163.13 27.3921M163.2 37.0721H158.93V30.1821H163.2C165.44 30.1821 166.72 32.0421 166.72 33.6321C166.72 35.2221 165.45 37.0821 163.2 37.0821M181.75 34.1821C179.58 34.1821 177.33 35.1421 176.4 37.2621L179.06 38.3721C179.63 37.2621 180.69 36.9021 181.8 36.9021C183.35 36.9021 184.93 37.8321 184.96 39.4921V39.7021C184.42 39.3921 183.25 38.9221 181.83 38.9221C178.96 38.9221 176.04 40.5021 176.04 43.4521C176.04 46.1421 178.39 47.8721 181.03 47.8721C183.05 47.8721 184.16 46.9621 184.86 45.9021H184.96V47.4521H187.86V39.7421C187.86 36.1721 185.2 34.1821 181.75 34.1821ZM181.39 45.2021C180.41 45.2021 179.04 44.7121 179.04 43.4921C179.04 41.9421 180.75 41.3421 182.22 41.3421C183.54 41.3421 184.16 41.6221 184.96 42.0121C184.73 43.8721 183.12 45.1921 181.39 45.1921M198.41 34.6221L194.97 43.3421H194.87L191.3 34.6221H188.07L193.42 46.8021L190.37 53.5821H193.5L201.75 34.6221H198.41ZM171.38 47.4921H174.38V27.3821H171.38V47.4921Z" fill="white"/>
<path d="M36.2 31.1722V31.6422L16.29 51.5522C16.29 51.5522 16.21 51.4722 16.17 51.4322C15.7 50.9422 15.43 50.1722 15.43 49.1822V13.6422C15.43 12.6422 15.7 11.8722 16.17 11.3822C16.21 11.3422 16.25 11.3022 16.29 11.2622L36.2 31.1722Z" stroke="white" stroke-linecap="round" stroke-linejoin="round"/>
<path d="M50.85 33.7322L42.99 38.1922L42.83 38.2822L36.2 31.6422V31.1722L42.84 24.5322L42.99 24.6222L50.85 29.0922C53.09 30.3622 53.09 32.4522 50.85 33.7322Z" stroke="white" stroke-linecap="round" stroke-linejoin="round"/>
<path d="M50.85 33.7322L42.99 38.1922L42.83 38.2822L36.2 31.6422V31.1722L42.84 24.5322L42.99 24.6222L50.85 29.0922C53.09 30.3622 53.09 32.4522 50.85 33.7322Z" stroke="white" stroke-linecap="round" stroke-linejoin="round"/>
<path d="M42.99 38.1921L42.83 38.2821L36.2 31.6421L16.29 51.5521C16.29 51.5521 16.21 51.4721 16.17 51.4321L36.2 31.4121L42.99 38.1921Z" stroke="white" stroke-linecap="round" stroke-linejoin="round"/>
<path d="M42.83 38.2821L19.51 51.5321C18.2 52.2821 17.04 52.2321 16.29 51.5521L36.2 31.6421L42.83 38.2821Z" stroke="white" stroke-linecap="round" stroke-linejoin="round"/>
<path d="M42.99 38.1921L42.83 38.2821L36.2 31.6421L16.29 51.5521C16.29 51.5521 16.21 51.4721 16.17 51.4321L36.2 31.4121L42.99 38.1921Z" stroke="white" stroke-linecap="round" stroke-linejoin="round"/>
<path d="M42.99 24.6222L36.2 31.4122L16.17 11.3822C16.17 11.3822 16.25 11.3022 16.29 11.2622L36.2 31.1722L42.84 24.5322L42.99 24.6222Z" stroke="white" stroke-linecap="round" stroke-linejoin="round"/>
<path d="M42.84 24.5322L36.2 31.1722L16.29 11.2622C16.67 10.9222 17.15 10.7422 17.71 10.7422C18.27 10.7422 18.86 10.9122 19.51 11.2822L42.83 24.5322H42.84Z" stroke="white" stroke-linecap="round" stroke-linejoin="round"/>
<path d="M42.99 24.6222L36.2 31.4122L16.17 11.3822C16.17 11.3822 16.25 11.3022 16.29 11.2622L36.2 31.1722L42.84 24.5322L42.99 24.6222Z" stroke="white" stroke-linecap="round" stroke-linejoin="round"/>
<path d="M73.12 12.5119C72.52 11.9819 71.72 11.6319 70.84 11.6319C68.86 11.6319 67.34 13.2619 67.34 15.2719C67.34 17.2819 68.86 18.8919 70.84 18.8919C72.54 18.8919 73.78 17.9019 73.86 16.3319H71.17V15.2219H75.32C75.32 18.5419 73.55 20.1119 70.84 20.1119C68.13 20.1119 66.06 17.9419 66.06 15.2619C66.06 12.5819 68.15 10.4019 70.84 10.4019C72.09 10.4019 73.22 10.8819 74.04 11.6519L73.12 12.5019V12.5119Z" fill="white"/>
<path d="M82.67 10.522V11.722H78.34V14.742H82.12V15.932H78.34V18.792H82.81V19.982H77.07V10.522H82.67Z" fill="white"/>
<path d="M90.95 10.522V11.732H88.08V19.982H86.79V11.732H83.92V10.522H90.95Z" fill="white"/>
<path d="M97.08 10.522H95.8V19.982H97.08V10.522Z" fill="white"/>
<path d="M105.78 10.522V11.732H102.91V19.982H101.62V11.732H98.75V10.522H105.78Z" fill="white"/>
<path d="M114.8 10.4121C117.5 10.4121 119.61 12.5821 119.61 15.2721C119.61 17.9621 117.51 20.1221 114.8 20.1221C112.09 20.1221 110.02 17.9521 110.02 15.2721C110.02 12.5921 112.11 10.4121 114.8 10.4121ZM114.8 18.8821C116.79 18.8821 118.32 17.2721 118.32 15.2721C118.32 13.2721 116.79 11.6421 114.8 11.6421C112.81 11.6421 111.3 13.2621 111.3 15.2721C111.3 17.2821 112.82 18.8821 114.8 18.8821Z" fill="white"/>
<path d="M127.16 19.982L122.85 12.862V19.982H121.57V10.522H122.83L127.1 17.592V10.522H128.38V19.982H127.16Z" fill="white"/>
</svg>
